<?xml version="1.0" standalone="no"?>
<!DOCTYPE svg PUBLIC "-//W3C//DTD SVG 20010904//EN"
 "http://www.w3.org/TR/2001/REC-SVG-20010904/DTD/svg10.dtd">
<svg version="1.0" xmlns="http://www.w3.org/2000/svg"
 width="909.000000pt" height="1280.000000pt" viewBox="0 0 909.000000 1280.000000"
 preserveAspectRatio="xMidYMid meet">

<g transform="translate(0.000000,1280.000000) scale(0.100000,-0.100000)"
fill="#000000" stroke="none">
<path d="M4770 11239 c-36 -5 -166 -13 -290 -17 l-225 -9 -170 -57 c-245 -83
-448 -197 -562 -318 -17 -18 -56 -67 -87 -108 -30 -41 -59 -80 -63 -85 -77
-98 -118 -186 -161 -341 -41 -145 -43 -158 -48 -320 -3 -76 -6 -166 -7 -199
-2 -66 16 -113 75 -195 31 -42 62 -141 103 -323 7 -32 22 -70 32 -84 40 -56
44 -68 40 -122 -4 -54 8 -126 24 -146 4 -6 11 -42 14 -80 11 -131 14 -143 54
-232 22 -48 47 -119 56 -158 42 -183 114 -327 231 -460 110 -125 277 -331 287
-355 6 -14 22 -35 34 -47 13 -13 23 -34 23 -50 0 -30 39 -145 64 -191 9 -15
31 -58 50 -97 19 -38 53 -87 75 -109 23 -21 41 -42 41 -46 0 -17 74 -51 97
-45 29 7 30 31 2 40 -16 5 -19 12 -15 31 5 17 2 26 -10 31 -25 9 -33 44 -19
79 8 20 9 37 3 47 -5 10 -6 22 -3 27 10 17 -13 75 -40 100 -14 13 -25 29 -25
36 0 7 -6 17 -14 21 -9 6 -11 15 -5 31 7 20 16 22 76 23 150 3 187 13 358 93
190 90 242 118 266 143 13 13 39 39 58 56 19 18 55 52 80 77 25 25 63 58 83
74 21 15 52 54 70 85 17 31 40 62 50 69 10 7 18 19 18 26 0 8 6 19 14 25 13
11 13 7 4 -26 -5 -21 -17 -46 -26 -56 -9 -10 -17 -35 -18 -57 -2 -35 0 -38 23
-37 14 1 28 -4 30 -10 3 -8 -3 -13 -14 -13 -10 0 -25 -5 -33 -10 -13 -9 -12
-13 5 -26 20 -16 20 -16 -3 -9 -23 7 -23 6 -7 -18 l16 -25 25 25 c13 13 28 22
32 19 11 -6 87 63 136 122 41 50 45 81 15 122 -20 27 -22 43 -27 279 -4 205
-2 254 9 267 11 14 12 18 1 22 -24 8 -52 45 -52 70 0 31 18 64 31 56 7 -4 10
7 8 31 -3 29 1 41 20 56 28 23 57 24 77 4 9 -8 31 -15 50 -15 24 0 34 5 34 15
0 10 -10 15 -29 15 -22 0 -31 6 -41 29 l-12 29 -36 -24 c-20 -14 -43 -23 -51
-22 -38 8 -38 209 0 261 12 16 18 35 14 46 -3 11 1 26 10 34 8 9 15 26 15 39
0 38 20 51 40 26 25 -32 63 -18 89 33 27 51 48 72 64 66 9 -3 13 19 14 83 2
55 18 162 43 286 46 229 50 321 21 466 -22 106 -50 185 -86 243 -14 22 -40 72
-59 112 -40 82 -70 107 -130 107 -38 1 -42 4 -63 44 -59 117 -174 235 -293
302 -195 108 -323 140 -480 119z m-116 -216 c7 -17 -4 -16 -28 2 -18 13 -18
14 3 12 11 -1 23 -7 25 -14z m-74 -103 c0 -5 -4 -10 -9 -10 -6 0 -13 5 -16 10
-3 6 1 10 9 10 9 0 16 -4 16 -10z m115 0 c3 -5 -1 -10 -9 -10 -9 0 -16 5 -16
10 0 6 4 10 9 10 6 0 13 -4 16 -10z m-538 -56 c-3 -3 -12 -4 -19 -1 -8 3 -5 6
6 6 11 1 17 -2 13 -5z m63 -394 c0 -5 -7 -10 -16 -10 -8 0 -12 5 -9 10 3 6 10
10 16 10 5 0 9 -4 9 -10z m-262 -255 c75 -36 174 -48 339 -42 77 3 144 3 147
-1 4 -3 26 -5 50 -3 28 1 48 -3 58 -13 9 -8 18 -13 21 -10 3 3 12 -3 19 -15 7
-12 19 -21 26 -21 7 0 15 -7 19 -16 5 -13 7 -13 14 -2 7 10 9 10 9 1 0 -7 5
-13 10 -13 6 0 10 7 10 15 0 21 16 19 25 -2 6 -16 8 -15 16 5 12 31 24 28 49
-13 12 -19 27 -35 33 -35 7 0 27 -13 45 -29 23 -20 30 -34 25 -47 -4 -12 -3
-15 5 -10 7 4 12 1 12 -7 0 -21 26 -41 35 -27 4 6 13 9 20 6 8 -3 16 0 19 7 2
7 5 2 5 -11 1 -13 -3 -21 -8 -18 -13 8 -22 -36 -10 -50 5 -7 21 -15 35 -18 14
-4 35 -16 47 -26 11 -11 27 -20 35 -20 9 0 11 -7 7 -20 -5 -15 -2 -20 12 -20
37 -1 51 -23 48 -75 -1 -28 -3 -53 -4 -57 0 -4 -14 -14 -30 -22 -25 -13 -30
-13 -35 -1 -3 10 -15 12 -38 9 -26 -4 -43 1 -78 25 -51 35 -75 39 -89 14 -5
-10 -13 -15 -17 -11 -4 4 -20 -2 -36 -13 -16 -12 -32 -19 -35 -16 -3 4 -22 -2
-42 -12 -20 -10 -49 -21 -66 -25 -16 -4 -47 -16 -70 -26 -22 -9 -61 -21 -87
-24 -27 -4 -48 -11 -48 -16 0 -5 -13 -16 -29 -24 -26 -14 -28 -18 -23 -65 3
-33 -1 -59 -12 -82 -17 -34 -22 -139 -7 -139 5 0 11 -9 14 -19 5 -22 66 -63
79 -55 5 3 16 0 24 -7 8 -6 17 -9 20 -6 8 8 -26 70 -45 82 -16 9 -21 11 -52
13 -12 2 -18 14 -21 41 -3 34 0 41 34 66 47 36 96 41 108 11 5 -11 9 -15 9 -8
1 10 5 10 17 -2 17 -17 30 -20 36 -8 4 10 67 42 84 42 8 0 14 -10 14 -24 0
-14 12 -38 26 -55 20 -24 34 -31 60 -31 34 0 75 29 86 60 3 9 12 11 31 6 42
-10 37 -51 -8 -67 -35 -13 -48 -39 -20 -39 8 0 15 -7 15 -15 0 -8 9 -15 19
-15 10 0 21 7 25 15 3 8 0 15 -6 15 -7 0 -6 5 2 15 7 8 16 12 21 9 13 -8 59
26 59 45 0 9 9 22 20 29 11 7 20 21 20 31 0 22 -20 40 -21 19 0 -7 -4 -3 -9
10 -14 33 -104 68 -238 91 -23 4 -45 11 -48 14 -11 11 6 25 36 32 16 4 32 11
36 16 9 15 71 38 91 34 10 -2 40 -7 67 -10 35 -5 45 -9 35 -16 -12 -7 -11 -9
2 -9 20 0 99 -61 99 -76 0 -6 21 -17 46 -24 42 -12 47 -12 67 8 12 12 16 22 9
22 -6 0 -12 7 -12 15 0 9 9 15 24 15 29 0 37 -37 29 -127 -5 -59 -5 -60 21
-65 21 -4 26 -1 26 14 0 22 25 19 25 -3 0 -8 4 -20 8 -26 5 -7 5 -17 2 -23 -3
-5 -1 -19 5 -30 14 -27 3 -65 -23 -78 -18 -9 -19 -11 -4 -11 21 -1 24 -41 2
-41 -18 0 -20 -37 -3 -42 9 -3 8 -16 -1 -52 -6 -26 -9 -56 -6 -66 3 -10 0 -24
-8 -31 -7 -8 -14 -25 -15 -39 -3 -67 -9 -106 -16 -118 -4 -7 -2 -12 5 -12 10
0 10 -3 1 -12 -7 -7 -12 -35 -12 -64 0 -37 -4 -54 -15 -58 -8 -3 -15 -16 -15
-28 l0 -22 -16 22 c-19 28 -34 28 -34 0 0 -23 -12 -18 -17 7 -2 8 -4 22 -6 30
-5 22 -10 22 -39 -1 -20 -16 -27 -31 -30 -65 -3 -40 -5 -44 -27 -41 -22 2 -23
-1 -18 -32 3 -20 1 -36 -5 -38 -5 -2 -11 -31 -13 -63 -1 -33 -6 -75 -10 -92
-6 -26 -4 -34 9 -39 15 -6 14 -8 -4 -24 -11 -9 -20 -20 -20 -24 0 -14 -44 -65
-52 -60 -4 3 -8 -3 -8 -13 0 -26 -37 -48 -56 -32 -8 6 -14 8 -15 3 -1 -5 -5 2
-9 16 l-8 25 -1 -28 c-1 -15 -8 -30 -16 -33 -10 -4 -13 -13 -10 -25 5 -15 0
-20 -25 -25 -26 -6 -29 -10 -24 -28 4 -11 11 -22 15 -24 5 -2 9 -10 9 -17 0
-7 6 -15 13 -18 6 -2 9 -7 6 -11 -11 -12 -37 5 -43 29 -6 24 -31 39 -47 29
-12 -7 -11 -44 1 -44 19 0 10 -22 -11 -27 -16 -4 -20 -12 -16 -30 2 -13 0 -26
-4 -29 -5 -3 -9 5 -9 18 0 29 -37 56 -46 33 -3 -8 -10 -13 -14 -10 -4 3 -13
-9 -20 -25 -7 -17 -17 -30 -22 -30 -6 0 -8 -12 -5 -29 5 -23 0 -34 -23 -55
-17 -14 -37 -26 -45 -26 -9 0 -18 -7 -21 -15 -8 -19 -44 -20 -44 -1 0 8 -5 18
-10 21 -16 10 -40 -15 -40 -41 0 -27 0 -27 -34 -14 -14 5 -26 17 -26 25 0 9
-6 15 -12 14 -7 -2 -32 3 -55 11 -42 13 -43 15 -43 55 0 73 -12 138 -22 123
-7 -9 -11 -10 -14 -1 -3 7 -15 8 -32 4 -15 -4 -34 -4 -42 0 -24 12 -54 22 -62
21 -4 -1 -5 19 -3 43 3 33 0 45 -10 45 -8 0 -16 -4 -19 -9 -9 -14 -56 -20 -56
-7 0 6 -14 31 -30 55 -61 90 -57 140 18 217 24 25 25 24 36 -27 3 -16 15 -29
27 -32 18 -5 20 -11 15 -32 -9 -36 2 -66 22 -63 12 2 17 -5 17 -24 1 -28 15
-53 15 -27 1 8 7 -1 15 -19 8 -18 19 -31 25 -27 5 3 18 1 29 -4 15 -9 20 -7
24 11 7 27 1 38 -23 38 -10 0 -20 7 -24 15 -3 8 -12 15 -21 15 -8 0 -15 7 -15
16 0 15 2 15 24 1 17 -11 26 -13 34 -5 8 8 15 8 27 -2 12 -10 15 -10 15 4 0 9
6 19 14 22 10 4 5 13 -16 35 -37 37 -32 53 18 57 119 7 129 25 21 37 -56 7
-150 34 -163 48 -4 4 5 11 20 16 14 6 26 15 26 21 0 5 14 10 30 10 17 0 30 5
30 11 0 20 97 109 119 109 15 0 21 6 21 23 0 13 -6 29 -12 35 -10 10 -10 15 2
22 25 16 29 12 32 -37 3 -43 6 -48 28 -52 14 -1 28 -8 32 -14 4 -8 11 -7 21 1
12 10 18 10 30 -3 9 -8 20 -15 26 -15 6 0 11 -5 11 -10 0 -6 14 -9 30 -8 21 2
30 7 30 20 0 19 33 58 50 58 20 0 11 -48 -10 -53 -11 -3 -20 -13 -20 -22 0
-14 7 -15 48 -9 26 3 51 9 56 12 8 5 47 6 73 3 20 -3 -55 -61 -93 -71 -25 -7
-47 -17 -50 -21 -3 -5 -18 -9 -35 -9 -29 0 -40 -14 -16 -23 6 -2 1 -5 -13 -5
-38 -1 -196 -57 -179 -64 8 -3 26 0 40 8 13 7 33 13 44 14 11 0 33 7 48 15 38
20 127 31 127 16 0 -6 -5 -11 -12 -11 -6 0 -9 -2 -6 -5 9 -9 79 35 137 87 30
26 62 48 70 48 8 0 25 -12 38 -27 l23 -28 18 24 c39 49 17 137 -40 164 -18 8
-64 15 -102 16 -37 1 -72 4 -77 6 -4 3 -11 0 -15 -6 -5 -9 -11 -7 -19 5 -11
15 -14 15 -28 2 -13 -14 -16 -14 -27 -1 -7 8 -19 15 -26 15 -8 0 -14 9 -14 21
0 16 -4 19 -20 14 -40 -13 -14 50 27 66 21 8 24 12 13 22 -10 9 -13 9 -17 0
-3 -8 -22 -13 -44 -13 -21 0 -39 -5 -39 -11 0 -7 -11 -8 -29 -4 -38 8 -86 -16
-105 -54 -14 -26 -18 -28 -53 -21 -75 15 -157 77 -166 127 -7 34 12 138 34
188 7 17 14 73 15 125 1 52 5 134 9 182 l8 87 -31 28 c-17 15 -44 39 -61 53
-17 14 -36 35 -42 48 -7 12 -18 22 -24 22 -6 0 -18 11 -25 25 -13 23 -61 50
-89 48 -7 -1 -32 5 -55 13 -22 8 -74 15 -113 15 -57 0 -73 3 -73 15 0 8 -7 14
-15 14 -9 0 -21 12 -27 26 -10 22 -9 27 5 35 21 12 22 38 3 45 -8 3 -12 13 -9
22 2 10 0 28 -5 42 -10 26 8 66 35 83 10 6 10 13 3 27 -5 10 -7 25 -4 33 3 8
-2 21 -10 30 -17 16 -22 68 -8 81 4 4 8 12 8 17 3 22 6 23 14 4 8 -19 9 -18 9
4 1 37 41 99 73 112 15 6 28 15 28 20 0 5 8 9 19 9 10 0 21 9 24 19 3 11 22
29 43 39 22 11 39 20 40 21 0 1 23 -10 52 -24z m-331 -341 c-3 -3 -12 -4 -19
-1 -8 3 -5 6 6 6 11 1 17 -2 13 -5z m1480 -306 c-3 -8 -6 -5 -6 6 -1 11 2 17
5 13 3 -3 4 -12 1 -19z m-268 -182 c-23 -11 -91 3 -96 21 -6 18 48 20 84 3 29
-14 30 -16 12 -24z m-1079 -28 c-44 -17 -68 -18 -73 -4 -4 11 6 14 46 14 44 0
48 -2 27 -10z m-64 -35 c-10 -11 -19 -7 -22 10 -2 15 0 16 12 6 8 -6 12 -14
10 -16z m1104 1 c0 -8 -7 -14 -15 -14 -15 0 -21 21 -9 33 10 9 24 -2 24 -19z
m-798 -10 c39 -20 94 -80 62 -67 -12 4 -15 2 -12 -8 3 -8 -3 -25 -13 -38 -23
-29 -24 -45 -4 -37 8 3 15 0 16 -7 0 -9 2 -9 6 1 9 22 33 13 33 -14 0 -14 -4
-22 -10 -19 -5 3 -7 0 -4 -8 3 -8 -2 -32 -11 -52 -9 -23 -13 -51 -10 -69 4
-17 -1 -50 -9 -73 -8 -22 -12 -44 -9 -47 3 -3 0 -40 -6 -82 -7 -42 -10 -91 -7
-109 9 -46 48 -85 86 -85 16 0 30 -5 30 -11 0 -7 -11 -8 -31 -4 -25 6 -30 4
-23 -6 11 -18 5 -52 -10 -61 -6 -4 -20 -8 -31 -8 -21 0 -105 -80 -105 -99 0
-6 -9 -11 -19 -11 -11 0 -23 -4 -26 -10 -10 -16 -25 -12 -25 6 0 11 -6 15 -20
11 -13 -3 -20 0 -20 10 0 10 -6 12 -19 8 -11 -3 -22 -1 -26 5 -3 6 -11 8 -16
5 -5 -4 -9 0 -9 8 0 8 -13 29 -30 47 -16 18 -30 40 -30 50 0 10 -7 21 -15 24
-9 3 -22 21 -30 40 -8 19 -19 38 -25 41 -6 4 -10 14 -9 23 4 22 -11 63 -19 58
-4 -2 -7 31 -6 75 0 43 -2 79 -6 79 -17 0 -19 63 -3 100 16 37 51 59 73 45 24
-15 141 -15 176 0 38 16 95 65 76 65 -6 0 -17 3 -25 6 -10 3 -17 -2 -20 -13
-3 -11 -5 -8 -6 11 -1 24 -4 27 -23 23 -32 -8 -97 8 -117 29 -15 16 -16 22 -3
46 11 22 57 58 74 58 2 0 3 -16 4 -35 0 -28 8 -42 35 -65 19 -16 39 -29 44
-30 6 0 25 16 43 35 25 28 32 44 32 76 l0 40 38 -7 37 -7 -29 26 c-29 25 -62
28 -116 12 -8 -2 -22 0 -30 5 -13 9 -13 12 2 24 24 18 106 13 150 -10z m1285
-16 c-3 -8 -6 -5 -6 6 -1 11 2 17 5 13 3 -3 4 -12 1 -19z m-1394 -63 c8 -18
-11 -31 -25 -17 -11 11 -3 32 12 32 4 0 10 -7 13 -15z m597 -594 c0 -16 -31
-41 -51 -41 -17 0 -18 3 -7 20 7 10 21 21 33 23 11 2 21 5 23 6 1 0 2 -3 2 -8z
m746 -135 c18 -13 20 -24 19 -106 -2 -96 -13 -123 -39 -101 -13 11 -16 7 -22
-28 -12 -76 -73 -125 -71 -58 0 17 -3 49 -7 69 -6 31 -4 37 14 43 13 4 20 15
20 31 0 13 9 29 20 36 16 10 20 24 20 70 0 62 8 70 46 44z m-576 -72 c0 -8 -4
-12 -10 -9 -5 3 -10 13 -10 21 0 8 5 12 10 9 6 -3 10 -13 10 -21z m-813 -121
c-3 -10 -5 -4 -5 12 0 17 2 24 5 18 2 -7 2 -21 0 -30z m1243 -63 c0 -5 -5 -10
-11 -10 -5 0 -7 5 -4 10 3 6 8 10 11 10 2 0 4 -4 4 -10z m337 -62 c-3 -8 -6
-5 -6 6 -1 11 2 17 5 13 3 -3 4 -12 1 -19z m-1551 -25 c-10 -10 -19 5 -10 18
6 11 8 11 12 0 2 -7 1 -15 -2 -18z m1228 -18 c-4 -8 -10 -12 -15 -9 -14 8 -10
24 6 24 9 0 12 -6 9 -15z m-877 -337 c-3 -7 -5 -2 -5 12 0 14 2 19 5 13 2 -7
2 -19 0 -25z m400 -20 c-3 -8 -6 -5 -6 6 -1 11 2 17 5 13 3 -3 4 -12 1 -19z"/>
<path d="M4290 9463 c-8 -3 -18 -10 -21 -15 -3 -5 -14 -11 -24 -12 -25 -4 -30
-23 -8 -30 29 -9 133 35 133 56 0 9 -57 9 -80 1z"/>
<path d="M4525 9270 c-12 -19 16 -40 51 -40 27 0 34 -4 34 -19 0 -10 7 -21 15
-25 8 -3 15 -2 15 3 0 14 44 21 52 8 6 -9 8 -9 8 1 0 6 1 15 3 18 4 11 -90 31
-123 26 -28 -4 -36 3 -31 31 2 11 -17 9 -24 -3z"/>
<path d="M5265 9230 c-3 -4 4 -10 15 -13 32 -8 35 -8 35 6 0 13 -42 19 -50 7z"/>
<path d="M4558 8887 c2 -17 9 -38 15 -46 6 -7 19 -30 28 -50 l17 -36 1 36 c1
40 -19 87 -47 112 -18 16 -18 15 -14 -16z"/>
<path d="M4920 8490 c0 -5 5 -10 11 -10 5 0 7 5 4 10 -3 6 -8 10 -11 10 -2 0
-4 -4 -4 -10z"/>
<path d="M4307 8082 c-46 -12 -93 -47 -77 -57 5 -3 10 -17 10 -29 0 -16 7 -26
22 -29 26 -7 38 -1 38 19 0 8 5 14 10 14 6 0 10 6 10 14 0 31 68 54 113 37 24
-9 47 -4 47 9 0 4 -10 11 -22 14 -26 7 -131 13 -151 8z"/>
<path d="M4020 8011 c0 -6 5 -13 10 -16 6 -3 10 1 10 9 0 9 -4 16 -10 16 -5 0
-10 -4 -10 -9z"/>
<path d="M4572 7800 c0 -14 2 -19 5 -12 2 6 2 18 0 25 -3 6 -5 1 -5 -13z"/>
<path d="M3985 9160 c-3 -5 1 -10 9 -10 9 0 16 5 16 10 0 6 -4 10 -9 10 -6 0
-13 -4 -16 -10z"/>
<path d="M5751 9325 c1 -19 18 -51 18 -35 0 8 -4 22 -9 30 -5 8 -9 11 -9 5z"/>
<path d="M5576 8842 c-13 -12 -5 -22 19 -22 14 0 25 4 25 9 0 10 -36 21 -44
13z"/>
<path d="M5335 8019 c-4 -6 -5 -12 -2 -15 2 -3 7 2 10 11 7 17 1 20 -8 4z"/>
<path d="M5720 7971 c0 -17 -28 -86 -65 -160 -36 -71 -65 -133 -65 -138 0 -4
-8 -24 -19 -43 -93 -176 -247 -485 -261 -525 -10 -27 -32 -86 -49 -130 -69
-171 -91 -232 -105 -286 -8 -31 -21 -70 -29 -85 -8 -16 -22 -56 -30 -89 -9
-33 -37 -118 -63 -190 -25 -71 -63 -193 -84 -270 -21 -77 -43 -152 -49 -168
-9 -24 -39 -139 -96 -372 -85 -346 -172 -835 -209 -1170 -9 -77 -21 -167 -26
-200 -6 -33 -18 -121 -26 -195 -8 -74 -19 -171 -25 -215 -20 -160 -30 -305
-35 -565 -7 -282 2 -412 36 -530 10 -36 24 -92 31 -125 7 -33 19 -70 27 -82 7
-12 11 -26 8 -32 -8 -12 60 -321 93 -426 20 -61 48 -168 81 -310 10 -44 28
-109 40 -145 12 -36 31 -105 41 -155 11 -49 35 -139 53 -200 19 -60 46 -155
61 -210 34 -126 94 -307 106 -319 5 -6 9 -18 9 -28 0 -16 29 -82 71 -160 5
-10 9 -23 9 -30 0 -6 6 -19 14 -27 19 -21 46 -100 36 -106 -4 -2 -70 -5 -146
-5 -204 -1 -404 -9 -418 -17 -6 -4 -23 -6 -38 -4 -15 1 -33 -1 -40 -5 -6 -4
-23 -9 -37 -10 -14 -2 -46 -5 -71 -9 -25 -3 -52 -5 -60 -6 -35 -2 -406 -50
-422 -55 -9 -3 -26 1 -37 8 -17 11 -26 10 -53 -4 -27 -14 -43 -15 -83 -8 -27
6 -75 13 -105 16 -35 5 -61 14 -71 26 -14 16 -18 16 -23 3 -5 -13 -30 -14
-178 -10 -274 7 -398 24 -426 58 -6 7 -14 62 -18 123 -6 96 -4 121 16 199 14
52 22 113 21 145 -2 54 4 110 35 315 21 139 91 529 126 710 11 55 24 123 29
150 5 28 18 95 29 150 12 55 26 138 31 185 6 47 17 126 25 175 14 87 17 92 69
150 30 33 55 64 55 68 0 4 9 20 20 35 22 31 30 83 14 89 -6 2 -28 -12 -50 -32
-38 -35 -38 -35 -47 -13 -15 42 -10 172 13 278 9 47 28 146 35 190 2 14 9 72
15 130 6 58 16 125 21 150 5 25 13 104 19 175 6 72 18 166 26 210 9 44 20 102
25 128 4 26 11 57 14 68 7 22 32 184 45 296 4 39 13 95 19 125 6 29 18 114 26
188 9 74 20 151 24 170 5 19 17 91 26 160 28 219 33 251 63 435 31 188 45 310
63 560 11 161 43 396 84 615 23 123 63 258 100 335 16 32 30 97 45 210 6 39
17 117 25 175 8 58 14 123 14 145 l-1 40 -25 -57 c-26 -57 -26 -57 -107 -88
-77 -30 -156 -70 -346 -175 -47 -25 -148 -74 -225 -107 -161 -69 -418 -204
-553 -291 -151 -97 -236 -208 -262 -342 -28 -149 -40 -196 -73 -290 -57 -161
-66 -223 -78 -530 -13 -379 -35 -629 -69 -815 -43 -228 -52 -318 -51 -490 0
-85 -4 -202 -10 -260 -13 -133 -75 -480 -144 -804 -71 -331 -71 -332 -124
-471 l-45 -120 -6 -280 c-5 -243 -8 -286 -25 -325 -14 -36 -19 -73 -20 -180
-2 -129 -4 -144 -53 -325 -74 -275 -90 -370 -118 -710 -16 -195 -14 -577 3
-767 l6 -68 1124 0 1125 0 -5 82 c-5 61 -4 73 3 43 5 -22 9 -57 9 -78 1 -21 7
-40 14 -42 6 -3 999 -4 2205 -3 l2193 3 -37 70 c-20 39 -51 95 -69 125 -35 58
-258 476 -319 597 -20 40 -36 85 -36 101 0 16 13 53 29 83 73 135 123 354 140
614 9 138 14 161 56 289 40 118 48 158 57 265 6 69 26 205 45 301 80 398 147
767 170 930 40 287 9 751 -111 1690 -19 151 -53 435 -76 630 -61 532 -86 686
-135 840 -63 195 -139 268 -361 350 -196 71 -308 114 -568 219 -391 157 -444
180 -681 298 -290 145 -352 188 -519 359 -76 79 -165 164 -197 189 l-59 46 0
-30z m1280 -2375 c0 -3 -4 -8 -10 -11 -5 -3 -10 -1 -10 4 0 6 5 11 10 11 6 0
10 -2 10 -4z m-410 -186 c0 -5 -2 -10 -4 -10 -3 0 -8 5 -11 10 -3 6 -1 10 4
10 6 0 11 -4 11 -10z m-130 -664 c0 -3 -4 -8 -10 -11 -5 -3 -10 -1 -10 4 0 6
5 11 10 11 6 0 10 -2 10 -4z m-420 -346 c0 -5 -2 -10 -4 -10 -3 0 -8 5 -11 10
-3 6 -1 10 4 10 6 0 11 -4 11 -10z m-1290 -620 c0 -5 -2 -10 -4 -10 -2 0 -12
-3 -22 -7 -16 -6 -17 -5 -4 10 17 19 30 22 30 7z m1390 -370 c0 -5 -4 -10 -10
-10 -5 0 -10 5 -10 10 0 6 5 10 10 10 6 0 10 -4 10 -10z m1267 -46 c-3 -3 -12
-4 -19 -1 -8 3 -5 6 6 6 11 1 17 -2 13 -5z m-147 -224 c0 -5 -5 -10 -11 -10
-5 0 -7 5 -4 10 3 6 8 10 11 10 2 0 4 -4 4 -10z m-2600 -310 c0 -5 -4 -10 -10
-10 -5 0 -10 5 -10 10 0 6 5 10 10 10 6 0 10 -4 10 -10z m2770 -310 c0 -5 -5
-10 -11 -10 -5 0 -7 5 -4 10 3 6 8 10 11 10 2 0 4 -4 4 -10z m-2573 -992 c-3
-8 -6 -5 -6 6 -1 11 2 17 5 13 3 -3 4 -12 1 -19z m88 -98 c3 -5 1 -10 -4 -10
-6 0 -11 5 -11 10 0 6 2 10 4 10 3 0 8 -4 11 -10z m215 -260 c0 -13 -7 -20
-20 -20 -19 0 -27 20 -13 33 13 14 33 6 33 -13z m1432 -42 c-9 -9 -12 -7 -12
12 0 19 3 21 12 12 9 -9 9 -15 0 -24z m-2281 -985 c1 -10 3 -35 5 -55 2 -21
-1 -38 -5 -38 -9 0 -21 49 -21 86 0 27 19 33 21 7z"/>
<path d="M5340 7827 c0 -22 11 -27 26 -12 19 19 18 25 -6 25 -11 0 -20 -6 -20
-13z"/>
<path d="M4310 7051 c0 -6 4 -13 10 -16 6 -3 7 1 4 9 -7 18 -14 21 -14 7z"/>
<path d="M4243 7014 c-7 -18 28 -50 90 -83 60 -32 69 -24 11 9 -53 31 -91 66
-82 76 6 5 38 -10 88 -42 23 -15 24 -15 5 0 -11 9 -30 26 -43 36 -27 24 -60
26 -69 4z"/>
<path d="M4191 6943 c-14 -27 -30 -55 -36 -63 -36 -49 -41 -134 -10 -170 27
-32 48 -126 67 -300 14 -129 14 -159 0 -281 -8 -76 -17 -108 -40 -150 -70
-126 -100 -253 -122 -529 -6 -69 -21 -170 -35 -225 -20 -85 -24 -126 -24 -275
-1 -96 -8 -233 -16 -305 -9 -71 -20 -177 -26 -235 -20 -211 -41 -357 -66 -450
-24 -91 -25 -109 -28 -415 -3 -395 -23 -649 -77 -984 -46 -287 -53 -348 -67
-541 -6 -74 -15 -189 -21 -255 -11 -129 -8 -175 20 -245 17 -44 38 -103 68
-188 l15 -43 130 133 c198 203 178 152 182 455 4 308 21 455 68 623 20 69 41
161 47 205 7 44 18 105 26 135 7 30 18 107 23 170 9 105 23 247 51 500 6 52
15 164 21 249 5 85 12 157 14 161 3 4 9 115 15 246 6 132 15 262 20 289 5 28
12 127 15 220 5 171 12 318 20 430 3 33 10 154 15 269 6 115 12 218 15 230 3
12 14 112 25 223 21 207 25 317 14 371 -6 28 -8 30 -28 20 -65 -34 -76 -36
-76 -13 0 8 8 14 18 13 31 -3 83 25 79 43 -5 17 45 125 83 181 23 32 84 102
162 185 l40 41 -99 96 c-95 93 -99 95 -145 96 -26 0 -49 4 -52 9 -3 4 6 6 19
3 14 -2 25 0 25 6 0 16 -41 22 -110 16 -61 -5 -68 -4 -112 26 -26 17 -50 40
-53 51 -10 31 -29 22 -54 -28z m374 -213 c4 -6 -7 -10 -27 -10 -25 0 -29 3
-18 10 19 13 37 13 45 0z m-65 -60 c-12 -16 -18 -30 -14 -30 4 0 0 -8 -8 -17
-9 -10 -23 -35 -31 -55 -9 -21 -21 -38 -26 -38 -6 0 -11 -8 -11 -18 0 -21 -27
-62 -41 -62 -14 0 -11 43 7 68 8 12 17 32 19 45 3 12 13 29 23 38 11 8 23 25
26 37 4 12 12 22 17 22 5 0 19 9 31 20 30 28 33 25 8 -10z m-140 -248 c0 -21
-26 -60 -34 -51 -7 7 16 69 26 69 4 0 8 -8 8 -18z m38 -151 c-1 -22 -5 -38
-10 -35 -9 6 -10 36 -2 58 10 27 15 18 12 -23z m-143 -3158 c-2 -27 -4 -73 -5
-103 -2 -53 -2 -54 -11 -20 -11 45 0 170 15 170 2 0 2 -21 1 -47z"/>
<path d="M4382 6955 c10 -11 68 -23 68 -15 0 4 -10 10 -22 14 -29 7 -53 8 -46
1z"/>
</g>
</svg>
